<?xml version="1.0" encoding="UTF-8" standalone="no"?>
<!-- Created with Inkscape (http://www.inkscape.org/) -->

<svg
   width="155.52806mm"
   height="82.920746mm"
   viewBox="0 0 155.52806 82.920746"
   version="1.1"
   id="svg1"
   xml:space="preserve"
   xmlns="http://www.w3.org/2000/svg"
   xmlns:svg="http://www.w3.org/2000/svg"><defs
     id="defs1" /><g
     id="layer2"
     transform="translate(-140.64625,-204.82268)"><path
       style="fill:none;stroke:#000000;stroke-width:0.214982;stroke-linejoin:round;stroke-dasharray:none;stroke-opacity:1"
       d="m 150.18802,209.71352 6.64248,6.25335 6.43008,6.12006 5.99765,5.57528 2.63352,2.1541 1.73869,1.23941 1.90582,0.99129 1.68768,0.64939 1.36242,0.2061 1.32097,-0.0363 1.65998,-0.35871 4.24231,-1.33416 3.75567,-1.32078 4.72232,-1.59083 2.16901,-0.82493 6.30798,-2.12151 6.65274,-2.23535 4.38042,-1.3727 2.31187,-0.68974 1.55569,-0.35585 0.96954,-0.16579 0.82854,-0.23153 2.30711,-0.86353 1.9971,-0.75065 0.96573,-0.30478 1.1724,-0.37998 0.61616,-0.36481 1.73754,-1.33491 1.74136,-1.19586 2.08419,-1.37924 1.71425,-0.91681 1.75089,-0.84825 1.85615,-0.81633 2.17186,-0.72067 2.83046,-0.80834 2.35523,-0.3778 3.36237,-0.44028 2.67384,-0.17783 3.37955,0.18546 3.7339,0.41923 3.81583,0.86924 3.15725,0.95689 3.5192,1.46879 2.68396,1.45695 2.51682,1.70506 1.38916,1.17941 0.85913,0.88092 0.75199,0.77947 0.82721,0.98613 1.03389,0.91089 1.73583,1.1351 1.54959,0.68798 1.75531,0.57797 2.93913,0.615 2.51911,0.52218 2.16862,0.42746 1.61532,0.54702 0.94716,0.28708 0.91814,0.49659 0.71722,0.78045 0.50674,0.71662 0.22675,0.65473 -0.11422,0.90765 -0.77661,0.85626 -1.26901,0.66107 -1.94192,0.22729 -4.30954,0.15313 -2.95384,0.11597 -2.25383,0.27066 -2.21808,0.30444 -1.83476,0.32874 -1.62236,0.46204 -1.75472,0.70918 -1.78759,0.77968 -1.85232,0.9554 -1.60327,1.15727 -1.39373,1.18632 -1.58987,1.64395 -0.94087,1.20867 -1.13321,1.80534 -0.88508,1.97248 -0.77701,2.10866 -0.80792,2.24867 -1.09118,3.33489 -0.87744,2.25054 -1.08221,2.39538 -1.45601,2.71869 -1.52645,2.68586 -1.23559,1.87775 -1.50701,2.12871 -1.84886,2.34684 -2.66791,2.92595 -3.01646,2.90076 -2.61651,2.26357 -2.58941,1.98451 -2.1518,1.45065 -3.25371,1.86361 -3.12133,1.61646 -2.99184,1.26501 -3.23708,1.20216 -3.93711,1.04748 -3.80474,0.80032 -3.56904,0.51551 -4.83098,0.16755 -4.63103,-0.15106 -3.45483,-0.39213 -3.0753,-0.5069 -2.87535,-0.8255 -3.82919,-1.35589 -2.8125,-1.07076 -2.57871,-1.42504 -2.47538,-1.46267 -3.0459,-1.96884 -1.91632,-1.37368 -1.92397,-1.65177 -1.3563,-1.2499 -1.2182,-1.2885 -0.86582,-1.12421 -0.68913,-1.02472 -0.97679,-1.36472 -0.96914,-1.0866 -0.60529,-0.50518 -1.01765,-0.31993 -3.18533,-0.71261 -5.91111,-1.15955 -4.09202,-0.79207 -1.88957,-0.40034 -0.64291,-0.60852 -0.28861,-0.37474 0.11231,-0.97717 0.76323,-1.34294 0.96895,-1.45294 1.58892,-1.67871 1.90466,-1.58304 1.63612,-1.22774 1.40519,-0.76918 1.13567,-0.44871 0.8962,-0.3029 0.43948,-0.46433 0.15853,-0.56099 -0.53862,-0.61139 -0.75675,-0.95328 -0.69296,-1.16377 -0.4777,-0.92615 -0.61101,-0.71378 -0.85914,-0.8809 -0.87344,-1.40231 -0.41872,-1.31046 -0.014,-1.77381 -0.10251,-2.46718 -0.55007,-1.02854 -1.30398,-1.87754 -1.26825,-1.84373 -1.52019,-2.14989 -1.30302,-1.8428 -0.93629,-1.15707 -1.05109,-1.53661 -1.7597,-2.00414 -1.54634,-1.8361 -1.32823,-1.4942 -1.18632,-1.39372 -1.40635,-1.80516 -1.01919,-1.64184 -0.84442,-1.61186 -0.70824,-1.71995 -0.31056,-1.17429 -0.21776,-1.59428 -0.15873,-1.97857 0.008,-2.2267 0.20035,-1.57099 0.59613,-1.09482 0.679,-0.61006 0.61904,-0.26051 1.63382,-0.0449 0.88434,0.53232 2.06684,1.78699 1.74918,1.62179 z"
       id="path2-8-7" /><circle
       style="opacity:1;fill:none;stroke:#fa0000;stroke-width:0.0769448;stroke-dasharray:none;stroke-dashoffset:0;stroke-opacity:1"
       id="path13"
       cx="263.92947"
       cy="213.87798"
       r="1.5115275" /><circle
       style="fill:none;stroke:#fa0000;stroke-width:0.0769448;stroke-dasharray:none;stroke-dashoffset:0;stroke-opacity:1"
       id="path13-3"
       cx="220.99037"
       cy="224.77808"
       r="1.5115275" /><circle
       style="fill:none;stroke:#fa0000;stroke-width:0.0769448;stroke-dasharray:none;stroke-dashoffset:0;stroke-opacity:1"
       id="path13-0"
       cx="264.78995"
       cy="228.18866"
       r="1.5115275" /><circle
       style="fill:none;stroke:#fa0000;stroke-width:0.0769448;stroke-dasharray:none;stroke-dashoffset:0;stroke-opacity:1"
       id="path13-0-8"
       cx="223.8143"
       cy="283.03622"
       r="1.5115275" /><circle
       style="fill:none;stroke:#fa0000;stroke-width:0.0769448;stroke-dasharray:none;stroke-dashoffset:0;stroke-opacity:1"
       id="path13-0-8-8"
       cx="191.96913"
       cy="269.03952"
       r="1.5115275" /><circle
       style="fill:none;stroke:#fa0000;stroke-width:0.0769448;stroke-dasharray:none;stroke-dashoffset:0;stroke-opacity:1"
       id="path13-0-8-8-1"
       cx="168.33986"
       cy="235.43817"
       r="1.5115275" /><circle
       style="fill:none;stroke:#fa0000;stroke-width:0.0769448;stroke-dasharray:none;stroke-dashoffset:0;stroke-opacity:1"
       id="path13-0-8-8-2"
       cx="149.30264"
       cy="215.91554"
       r="1.5115275" /></g></svg>
