<?xml version="1.0" encoding="UTF-8" standalone="no"?>
<!-- Created with Inkscape (http://www.inkscape.org/) -->

<svg
   width="36.747562mm"
   height="17.814352mm"
   viewBox="0 0 36.747562 17.814352"
   version="1.1"
   id="svg1"
   xml:space="preserve"
   xmlns="http://www.w3.org/2000/svg"
   xmlns:svg="http://www.w3.org/2000/svg"><defs
     id="defs1" /><g
     id="layer2"
     transform="translate(-259.37367,-222.18732)"><path
       style="opacity:1;fill:none;stroke:#000000;stroke-width:0.1;stroke-dasharray:none;stroke-opacity:1"
       d="m 296.05483,228.23794 -25.27467,0.13925 -5.29166,-6.12719 -4.52579,2.36733 -1.53179,3.96874 3.89912,4.66502 -3.20285,5.57018 2.01919,1.11404 3.13323,-4.87391 2.36733,2.64584 0.97478,-1.04441 1.39253,-1.18366 1.11402,-0.83553 0.90517,-0.55702 1.67106,-0.7659 1.74066,-0.69627 1.53181,-0.55702 1.94955,-0.55701 1.81031,-0.34814 2.29769,-0.27851 1.94959,-0.27851 h 2.64583 l 2.5762,-0.0696 h 1.74069 l 1.25328,-0.13925 0.76589,-0.27851 0.90516,-0.34813 0.55703,-0.41777 0.48739,-0.62664 z"
       id="path11" /><circle
       style="fill:none;stroke:#000000;stroke-width:0.100841;stroke-dasharray:none;stroke-opacity:1"
       id="path12-8"
       cx="327.69809"
       cy="121.64595"
       r="2.9495795"
       transform="rotate(20.388251)" /></g></svg>
