<?xml version="1.0" encoding="UTF-8" standalone="no"?>
<!-- Created with Inkscape (http://www.inkscape.org/) -->

<svg
   width="34.970604mm"
   height="16.384829mm"
   viewBox="0 0 34.970604 16.384829"
   version="1.1"
   id="svg1"
   xml:space="preserve"
   xmlns="http://www.w3.org/2000/svg"
   xmlns:svg="http://www.w3.org/2000/svg"><defs
     id="defs1" /><g
     id="layer2"
     transform="translate(-145.17687,-98.251507)"><path
       style="fill:none;fill-opacity:1;stroke:#000000;stroke-width:0.1;stroke-dasharray:none;stroke-dashoffset:0;stroke-opacity:1"
       d="m 180.09746,103.88344 c -25.1585,0 -25.1585,0 -25.1585,0 l -3.84024,-5.563423 -3.54484,2.313993 -2.31399,3.3479 3.791,4.43105 -3.10173,4.97262 1.82165,1.18161 3.00327,-4.62798 2.11705,2.26476 1.52626,-1.42778 1.72318,-1.13238 2.01859,-0.88621 2.01859,-0.88621 1.47701,-0.49234 2.06782,-0.44311 2.4617,-0.2954 1.77242,-0.24617 1.96935,-0.0492 h 1.96936 l 1.62471,-0.0492 h 1.82166 l 1.77241,-0.1477 0.88621,-0.0492 1.23085,-0.54157 0.5908,-0.49234 0.29541,-0.54158 z"
       id="path14" /><circle
       style="fill:none;fill-opacity:1;stroke:#000000;stroke-width:0.1;stroke-dasharray:none;stroke-opacity:1"
       id="path11-9"
       cx="178.41055"
       cy="38.846287"
       r="2.3198304"
       transform="rotate(22.340984)" /></g></svg>
