<?xml version="1.0" encoding="UTF-8" standalone="no"?>
<!-- Created with Inkscape (http://www.inkscape.org/) -->

<svg
   width="145mm"
   height="79.584564mm"
   viewBox="0 0 145 79.584564"
   version="1.1"
   id="svg1"
   xml:space="preserve"
   inkscape:version="1.3.2 (091e20e, 2023-11-25, custom)"
   sodipodi:docname="bird_outline.svg"
   xmlns:inkscape="http://www.inkscape.org/namespaces/inkscape"
   xmlns:sodipodi="http://sodipodi.sourceforge.net/DTD/sodipodi-0.dtd"
   xmlns="http://www.w3.org/2000/svg"
   xmlns:svg="http://www.w3.org/2000/svg"><sodipodi:namedview
     id="namedview1"
     pagecolor="#ffffff"
     bordercolor="#000000"
     borderopacity="0.25"
     inkscape:showpageshadow="2"
     inkscape:pageopacity="0.0"
     inkscape:pagecheckerboard="0"
     inkscape:deskcolor="#d1d1d1"
     inkscape:document-units="mm"
     inkscape:zoom="2.8970539"
     inkscape:cx="437.68602"
     inkscape:cy="157.57387"
     inkscape:window-width="1920"
     inkscape:window-height="1009"
     inkscape:window-x="1912"
     inkscape:window-y="1072"
     inkscape:window-maximized="1"
     inkscape:current-layer="layer1" /><defs
     id="defs1" /><g
     inkscape:label="Layer 1"
     inkscape:groupmode="layer"
     id="layer1"
     transform="translate(-27.785572,-63.465473)"><path
       style="fill:none;stroke:#000000;stroke-width:0.2;stroke-linejoin:round;stroke-dasharray:none;stroke-opacity:1"
       d="m 37.086244,68.560369 6.017443,5.98509 5.823332,5.855685 5.43511,5.338053 2.394035,2.07052 1.585242,1.197018 1.746998,0.970556 1.552889,0.647034 1.261723,0.226465 h 1.22937 l 1.552888,-0.291166 3.979277,-1.132317 3.526353,-1.132314 4.432202,-1.358779 2.038164,-0.711738 5.920389,-1.811704 6.243907,-1.908759 4.108683,-1.164665 2.167574,-0.582334 1.455832,-0.291167 0.905855,-0.129408 0.77644,-0.194109 2.16757,-0.744094 1.87641,-0.647038 0.90586,-0.258814 1.09996,-0.323518 0.58233,-0.323519 1.64994,-1.197018 1.64995,-1.067609 1.97346,-1.229371 1.6176,-0.808798 1.64994,-0.744091 1.747,-0.711741 2.03816,-0.614685 2.65286,-0.67939 2.19992,-0.291166 3.13813,-0.323519 2.49109,-0.09706 3.13812,0.258814 3.46166,0.485276 3.52635,0.905852 2.91166,0.970556 3.23519,1.455832 2.45874,1.423484 2.29698,1.649942 1.26172,1.132314 0.77645,0.84115 0.67939,0.74409 0.74409,0.938204 0.9382,0.873499 1.58524,1.099965 1.42348,0.679389 1.61759,0.582333 2.71756,0.647037 2.32933,0.549981 2.00582,0.452925 1.48819,0.54998 0.87349,0.29117 0.84115,0.485276 0.64704,0.744091 0.45293,0.67939 0.19411,0.614685 -0.12941,0.84115 -0.74409,0.776443 -1.19702,0.582333 -1.81171,0.16176 -4.01162,0.03235 -2.74991,0.03235 -2.10288,0.194112 -2.07051,0.226463 -1.71464,0.258814 -1.52055,0.388223 -1.64994,0.614685 -1.68229,0.67939 -1.74701,0.841146 -1.52053,1.035258 -1.32643,1.067613 -1.52053,1.488184 -0.90586,1.099964 -1.09996,1.649938 -0.8735,1.81171 -0.77644,1.94111 -0.8088,2.07052 -1.09996,3.07343 -0.8735,2.07051 -1.06761,2.19993 -1.42349,2.49108 -1.48817,2.45874 -1.19702,1.71466 -1.45584,1.9411 -1.77935,2.13523 -2.5558,2.65284 -2.87931,2.62051 -2.49109,2.03817 -2.45874,1.77935 -2.03817,1.29407 -3.07343,1.64994 -2.94401,1.42349 -2.81461,1.09996 -3.04107,1.03525 -3.68812,0.87351 -3.5587,0.64704 -3.33224,0.38821 -4.496906,0.0324 -4.302795,-0.25881 -3.202834,-0.45294 -2.84696,-0.54998 -2.652854,-0.84114 -3.52635,-1.35878 -2.588149,-1.06762 -2.361684,-1.39112 -2.26463,-1.42348 -2.782256,-1.90876 -1.747001,-1.32643 -1.747,-1.58524 -1.22937,-1.19702 -1.099962,-1.22937 -0.776445,-1.0676 -0.614685,-0.97056 -0.8735,-1.29408 -0.873499,-1.03526 -0.549981,-0.48527 -0.938203,-0.32352 -2.944021,-0.74409 -5.467461,-1.22937 -3.785164,-0.84115 -1.747001,-0.42057 -0.582333,-0.58234 -0.258815,-0.35587 0.129408,-0.90585 0.744092,-1.22937 0.938203,-1.32643 1.520537,-1.52053 1.811703,-1.42348 1.552889,-1.09996 1.326426,-0.67939 1.06761,-0.38823 0.84115,-0.25881 0.420572,-0.42057 0.161761,-0.51764 -0.48528,-0.58233 -0.679389,-0.90585 -0.614685,-1.09996 -0.420573,-0.8735 -0.54998,-0.67939 -0.776446,-0.84115 -0.776443,-1.32642 -0.35587,-1.22937 0.03235,-1.649948 -0.03235,-2.296982 -0.48528,-0.970553 -1.164665,-1.779354 -1.132314,-1.746999 -1.358779,-2.038165 -1.164666,-1.747002 -0.841147,-1.099961 -0.938204,-1.455832 -1.585241,-1.908761 -1.391128,-1.746998 -1.197018,-1.423483 -1.067612,-1.326424 -1.261723,-1.71465 -0.905851,-1.552888 -0.744091,-1.520536 -0.614685,-1.617591 -0.258814,-1.099965 -0.161761,-1.488184 -0.09706,-1.844056 0.06471,-2.070517 0.226462,-1.455832 0.582336,-1.002908 0.647035,-0.54998 0.582334,-0.226463 h 1.520537 l 0.808795,0.517629 1.876408,1.714647 1.585241,1.552888 z"
       id="path2" /></g></svg>
